P1
128 128
0000000000000000000000000000000000000000000000000000000000000000000000000000000000000000000000000000000000000000000000000000000000000000000000000000000000000000000000000000000000000000000000000000000000000000000000000000000000000000000000000000000000000000000000000000000000000000000000000000000000000000000000000000000000000000000000000000000000000000000000000000000000000000000000000000000000000000000000000000000000000000000000000000000000000000000000000000000000000000000000000000000000000000000000000000000000000000000000000000000000000000000000000000000000000000000000000000000000000000000000000000000000000000000000000000000000000000000000000000000000000000000000000000000000000000000000000000000000000000000000000000000000000000000000000000000000000000000000000000000000000000000000000000000000000000000000000000000000000000000000000000000000000000000000000000000000000000000000000000000000000000000000000000000000000000000000000000000000000000000000000000000000000000000000000000000000000000000000000000000000000000000000000000000000000000000000000000000000000000000000000000000000000000000000000000000000000000000000000000000000000000000000000000000000000000000000000000000000000000000000000000000000000000000000000000000000000000000000000000000000000000000000000000000000000000000000000000000000000000000000000000000000000000000000000000000000000000000000000000000000000000000000000000000000000000000000000000000000000000000000000000000000000000000000000000000000000000000000000000000000000000000000000000000000000000000000000000000000000000000000000000000000000000000000000000000000000000000000000000000000000000000000000000000000000000000000000000000000000000000000000000000000000000000000000000000000000000000000000000000000000000000000000000000000000000000000000000000000000000000000000000000000000000000000000000000000000000000000000000000000000000000000000000000000000000000000000000000000000000000000000000000000000000000000000000000000000000000000000000000000000000000000000000000000000000000000000000000000000000000000000000000000000000000000000000000000000000000000000000000000000000000000000000000000000000000000000000000000000000000000000000000000000000000000000000000000000000000000000000000000000000000000000000000000000000000000000000000000000000000000000000000000000000000000000000000000000000000000000000000000000000000000000000000000000000000000000000000000000000000000000000000000000000000000000000000000000000000000000000000000000000000000000000000000000000000000000000000000000000000000000000000000000000000000000000000000000000000000000000000000000000000000000000000000000000000000000000000000000000000000000000000000000000000000000000000000000000000000000000000000000000000000000000000000000000000000000000000000000000000000000000000000000000000000000000000000000000000000000000000000000000000000000000000000000000000000000000000000000000000000000000000000000000000000000000000000000000000000000000000000000000000000000000000000000000000000000000000000000000000000000000000000000000000000000000000000000000000000000000000000000000000000000000000000000000000000000000000000000000000000000000000000000000000000000000000000000000000000000000000000000000000000000000000000000000000000000000000000000000000000000000000000000000000000000000000000000000000000000000000000000000000000000000000000000000000000000000000000000000000000000000000000000000000000000000000000000000000000000000000000000000000000000000000000000000000000000000000000000000000000000000000000000000000000000000000000000000000000000000000000000000000000000000000000000000000000000000000000000000000000000000000000000000000000000000000000000000000000000000000000000000000000000000000000000000000000000000000000000000000000000000000000000000000000000000000000000000000000000000000000000000000000000000000000000000000000000000000000000000000000000000000000000000000000000000000000000000000000000000000000000000000000000000000000000000000000000000000000000000000000000000000000000000000000000000000000000000000000000000000000000000000000000000000000000000000000000000000000000000000000000000000000000000000000000000000000000000000000000000000000000000000000000000000000000000000000000000000000000000000000000000000000000000000000000000000000000000000000000000000000000000000000000000000000000000000000000000000000000000000000000000000000000000000000000000000000000000000000000000000000000000000000000000000000000000000000000000000000000000000000000000000000000000000000000000000000000000000000000000000000000000000000000000000000000000000000000000000000000000000000000000000000000000000000000000000000000000000000000000000000000000000000000000000000000000000000000000000000000000000000000000000000000000000000000000000000000000000000000000000000000000000000000000000000000000000000000000000000000000000000000000000000000000000000000000000000000000000000000000000000000000000000000000000000000000000000000000000000000000000000000000000000000000000000000000000000000000000000000000000000000000000000000000000000000000000000000000000000000000000000000000000000000000000000000000000000000000000000000000000000000000000000000000000000000000000000000000000000000000000000000000000000000000000000000000000000000000000000000000000000000000000000000000000000000000000000000000000000000000000000000000000000000000000000000000000000000000000000000000000000000000000000000000000000000000000000000000000000000000000000000000000000000000000000000000000011001111111111110011000000000000000000000000000000000000000000000000000000000000000000000000000000000000000000000000000000000001001111000000000010011000000000000000000000000000000000000000000000000000000000000000000000000000000000000000000000000000000000111000110000000000001101000000000000000000000000000000000000000000000000000000000000000000000000000000000000000000000000000000001010010000000001001000010000000000000000000000000000000000000000000000000000000000000000000000000000000000000000000000000000110011010100000000011100000001000000000000000000000000000000000000000000000000000000000000000000000000000000000000000000000001110100100010000010000011011001110000000000000000000000000000000000000000000000000000000000000000000000000000000000000000000000001010011100110111101100010100101100110000000000000000000000000000000000000000000000000000000000000000000000000000000000000000000010111011001011001110101000001110001110000000000000000000000000000000000000000000000000000000000000000000000000000000000000000010000010001111101010011110010001110101010000000000000000000000000000000000000000000000000000000000000000000000000000000000000001110110001011110011011011111101011101000100000000000000000000000000000000000000000000000000000000000000000000000000000000000000010111010110101011011011010001111101110110000000000000000000000000000000000000000000000000000000000000000000000000000000000000000000010100010110111000100010100111100001011000000000000000000000000000000000000000000000000000000000000000000000000000000000000000100100000000011011000100110000011010000011000000000000000000000000000000000000000000000000000000000000000000000000000000000000011100010101101110010011000001000111011001101000000000000000000000000000000000000000000000000000000000000000000000000000000000001001110011000110110001110010000100110111100010000000000000000000000000000000000000000000000000000000000000000000000000000000000111000100010100101011110110010110111001000001000000000000000000000000000000000000000000000000000000000000000000000000000000000010011100101100001001011100100000011101101001001100000000000000000000000000000000000000000000000000000000000000000000000000000001110001000001011010110011001111101111001111011000100000000000000000000000000000000000000000000000000000000000000000000000000000100111001010100101110101011000000110001010100001000100000000000000000000000000000000000000000000000000000000000000000000000000011100010011011100110100011000000011110111100010000001000000000000000000000000000000000000000000000000000000000000000000000000001001110010100100011001111111111101001111001000010000100000000000000000000000000000000000000000000000000000000000000000000000000111000100110000001011110011001111111110010011000010011000000000000000000000000000000000000000000000000000000000000000000000000010011100101000110010110001101101110111000100101100111101000000000000000000000000000000000000000000000000000000000000000000000001110001001100010010111111011010110101000011101110001100010000000000000000000000000000000000000000000000000000000000000000000000100111001010001000001111101011111000001010011010000110001000000000000000000000000000000000000000000000000000000000000000000000011100010011000010000010110111110110010100010010011010010010000000000000000000000000000000000000000000000000000000000000000000001001110010100000100001000111101001111101100011111111110001100000000000000000000000000000000000000000000000000000000000000000000111000100110000001011000110001001000111100100011011110110000000000000000000000000000000000000000000000000000000000000000000000010011100101000000001111101001100011010001000010100100100101000000000000000000000000000000000000000000000000000000000000000000001110001001100000000001100110101010000110110101011001001100110000000000000000000000000000000000000000000000000000000000000000000100111001010000000000000000010010000101111111101010110011110100000000000000000000000000000000000000000000000000000000000000000011100010011000000000000000000100100010000000110110001001001101000000000000000000000000000000000000000000000000000000000000000001001110010100000000000000000000100100100000010011001100011011110000000000000000000000000000000000000000000000000000000000000000111000100110000000000000000000000110001000000011001100001000101110000000000000000000000000000000000000000000000000000000000000010011100101000000000000000000000000000010110011110000111101110111100000000000000000000000000000000000000000000000000000000000001110001001100000000000000000000000000000011001111000011001011010100100000000000000000000000000000000000000000000000000000000000100111001010000000000000000000000000000000011000011000011011101101111100000000000000000000000000000000000000000000000000000000011100010011000000000000000000000000000000000000000000000000101101001111000000000000000000000000000000000000000000000000000000001001110010100000000000000000000000000000000000000000000000000000110110110000000000000000000000000000000000000000000000000000000111000100110000000000000000000000000000000000000000000000000000001100000000000000000000000000000000000000000000000000000000000010011100101000000000000000000000000000000000000000000000000000001011001111010000000000000000000000000000000000000000000000000001110001001100000000000000000000000000000000000000000000000000000100101110011100000000000000000000000000000000000000000000000000100111001010000000000000000000000000000000000000000000000000000001011010010010000000000000000000000000000000000000000000000000011100010011000000000000000000000000000000000000000000000000000000001100000011000000000000000000000000000000000000000000000000001001110010100000000000000000000000000000000000000000000000000000000001100000000000000000000000000000000000000000000000000000000111000100110000000000000000000000000000000000000000000000000000000000000000000000000000000000000000000000000000000000000000000010011100101000000000000000000000000000000000000000000000000000000000000000000000000000000000000000000000000000000000000000000001110001001100000000000000000000000000000000000000000000000000000000000000000000000000000000000000000000000000000000000000000000100111001010000000000000000000000000000000000000000000000000000000000000000000000000000000000000000000000000000000000000000000011100010011000000000000000000000000000000000000000000000000000000000000000000000000000000000000000000000000000000000000000000001001110010100000000000000000000000000000000000000000000000000000000000000000000000000000000000000000000000000000000000000000000111000100110000000000000000000000000000000000000000000000000000000000000000000000000000000000000000000000000000000000000000000010011100101000000000000000000000000000000000000000000000000000000000000000000000000000000000000000000000000000000000000000000001110001001100000000000000000000000000000000000000000000000000000000000000000000000000000000000000000000000000000000000000000000100111001010000000000000000000000000000000000000000000000000000000000000000000000000000000000000000000000000000000000000000000011100010011000000000000000000000000000000000000000000000000000000000000000000000000000000000000000000000000000000000000000000001001110010100000000000000000000000000000000000000000000000000000000000000000000000000000000000000000000000000000000000000000000111000100110000000000000000000000000000000000000000000000000000000000000000000000000000000000000000000000000000000000000000000010011100101000000000000000000000000000000000000000000000000000000000000000000000000000000000000000000000000000000000000000000000011101001100000000000000000000000000000000000000000000000000000000000000000000000000000000000000000000000000000000000000000000001010101010000000000000000000000000000000000000000000000000000000000000000000000000000000000000000000000000000000000000000000000001111011000000000000000000000000000000000000000000000000000000000000000000000000000000000000000000000000000000000000000000000000010110100000000000000000000000000000000000000000000000000000000000000000000000000000000000000000000000000000000000000000000000000011110000000000000000000000000000000000000000000000000000000000000000000000000000000000000000000000000000000000000000000000000000011000000000000000000000000000000000000000000000000000000000000000000000000000000000000000000000000000000000000000000000000000000000000000000000000000000000000000000000000000000000000000000000000000000000000000000000000000000000000000000000000000000000000000000000000000000000000000000000000000000000000000000000000000000000000000000000000000000000000000000000000000000000000000000000000000000000000000000000000000000000000000000000000000000000000000000000000000000000000000000000000000000000000000000000000000000000000000000000000000000000000000000000000000000000000000000000000000000000000000000000000000000000000000000000000000000000000000000000000000000000000000000000000000000000000000000000000000000000000000000000000000000000000000000000000000000000000000000000000000000000000000000000000000000000000000000000000000000000000000000000000000000000000000000000000000000000000000000000000000000000000000000000000000000000000000000000000000000000000000000000000000000000000000000000000000000000000000000000000000000000000000000000000000000000000000000000000000000000000000000000000000000000000000000000000000000000000000000000000000000000000000000000000000000000000000000000000000000000000000000000000000000000000000000000000000000000000000000000000000000000000000000000000000000000000000000000000000000000000000000000000000000000000000000000000000000000000000000000000000000000000000000000000000000000000000000000000000000000000000000000000000000000000000000000000000000000000000000000000000000000000000000000000000000000000000000000000000000000000000000000000000000000000000000000000000000000000000000000000000000000000000000000000000000000000000000000000000000000000000000000000000000000000000000000000000000000000000000000000000000000000000000000000000000000000000000000000000000000000000000000000000000000000000000000000000000000000000000000000000000000000000000000000000000000000000000000000000000000000000000000000000000000000000000000000000000000000000000000000000000000000000000000000000000000000000000000000000000000000000000000000000000000000000000000000000000000000000000000000000000000000000000000000000000000000000000000000000000000000000000000000000000000000000000000000000000000000000000000000000000000000000000000000000000000000000000000000000000000000000000000000000000000000000000000000000000000000000000000000000000000000000000000000000000000000000000000000000000000000000000000000000000000000000000000000000000000000000000000000000000000000000000000000000000000000000000000000000000000000000000000000000000000000000000000000000000000000000000000000000000000000000000000000000000000000000000000000000000000000000000000000000000000000000000000000000000000000000000000000000000000000000000000000000000000000000000000000000000000000000000000000000000000000000000000000000000000000000000000000000